<?xml version="1.0" encoding="UTF-8"?> <svg xmlns="http://www.w3.org/2000/svg" width="12" height="12" viewBox="0 0 12 12" fill="none"> <mask id="path-1-outside-1_130_2025" maskUnits="userSpaceOnUse" x="0" y="0" width="12" height="12" fill="black"> <rect fill="white" width="12" height="12"></rect> <path d="M11 6.00392C11 7.38431 10.5111 8.5634 9.53333 9.54118C8.56078 10.5137 7.38431 11 6.00392 11C4.62353 11 3.44444 10.5137 2.46667 9.54118C1.48889 8.5634 1 7.38431 1 6.00392C1 4.6183 1.48889 3.43922 2.46667 2.46667C3.44444 1.48889 4.62353 1 6.00392 1C7.38431 1 8.56078 1.48889 9.53333 2.46667C10.5111 3.43922 11 4.6183 11 6.00392ZM10.2784 6.00392C10.2784 4.82222 9.86013 3.81569 9.02353 2.98431C8.19216 2.14771 7.18562 1.72941 6.00392 1.72941C4.82222 1.72941 3.81307 2.14771 2.97647 2.98431C2.1451 3.81569 1.72941 4.82222 1.72941 6.00392C1.72941 7.18039 2.1451 8.18693 2.97647 9.02353C3.81307 9.8549 4.82222 10.2706 6.00392 10.2706C7.18562 10.2706 8.19216 9.8549 9.02353 9.02353C9.86013 8.18693 10.2784 7.18039 10.2784 6.00392ZM4.71765 4.96863C4.71765 5.14118 4.6549 5.2902 4.52941 5.41569C4.40915 5.54118 4.26013 5.60392 4.08235 5.60392C3.9098 5.60392 3.76078 5.54118 3.63529 5.41569C3.5098 5.2902 3.44706 5.14118 3.44706 4.96863C3.44706 4.79085 3.5098 4.64183 3.63529 4.52157C3.76078 4.39608 3.9098 4.33333 4.08235 4.33333C4.26013 4.33333 4.40915 4.39608 4.52941 4.52157C4.6549 4.64183 4.71765 4.79085 4.71765 4.96863ZM8.55294 4.96863C8.55294 5.14118 8.4902 5.2902 8.36471 5.41569C8.24444 5.54118 8.09543 5.60392 7.91765 5.60392C7.7451 5.60392 7.59608 5.54118 7.47059 5.41569C7.3451 5.2902 7.28235 5.14118 7.28235 4.96863C7.28235 4.79085 7.3451 4.64183 7.47059 4.52157C7.59608 4.39608 7.7451 4.33333 7.91765 4.33333C8.09543 4.33333 8.24444 4.39608 8.36471 4.52157C8.4902 4.64183 8.55294 4.79085 8.55294 4.96863ZM3.69804 7.61176L4.18431 7.32941C4.59739 8.08235 5.20392 8.45882 6.00392 8.45882C6.80392 8.45882 7.40784 8.08235 7.81569 7.32941L8.3098 7.61176C8.04837 8.1085 7.72418 8.48758 7.33726 8.74902C6.95556 9.01046 6.51111 9.14118 6.00392 9.14118C5.4915 9.14118 5.04444 9.01046 4.66275 8.74902C4.28105 8.48758 3.95948 8.1085 3.69804 7.61176Z"></path> </mask> <path d="M11 6.00392C11 7.38431 10.5111 8.5634 9.53333 9.54118C8.56078 10.5137 7.38431 11 6.00392 11C4.62353 11 3.44444 10.5137 2.46667 9.54118C1.48889 8.5634 1 7.38431 1 6.00392C1 4.6183 1.48889 3.43922 2.46667 2.46667C3.44444 1.48889 4.62353 1 6.00392 1C7.38431 1 8.56078 1.48889 9.53333 2.46667C10.5111 3.43922 11 4.6183 11 6.00392ZM10.2784 6.00392C10.2784 4.82222 9.86013 3.81569 9.02353 2.98431C8.19216 2.14771 7.18562 1.72941 6.00392 1.72941C4.82222 1.72941 3.81307 2.14771 2.97647 2.98431C2.1451 3.81569 1.72941 4.82222 1.72941 6.00392C1.72941 7.18039 2.1451 8.18693 2.97647 9.02353C3.81307 9.8549 4.82222 10.2706 6.00392 10.2706C7.18562 10.2706 8.19216 9.8549 9.02353 9.02353C9.86013 8.18693 10.2784 7.18039 10.2784 6.00392ZM4.71765 4.96863C4.71765 5.14118 4.6549 5.2902 4.52941 5.41569C4.40915 5.54118 4.26013 5.60392 4.08235 5.60392C3.9098 5.60392 3.76078 5.54118 3.63529 5.41569C3.5098 5.2902 3.44706 5.14118 3.44706 4.96863C3.44706 4.79085 3.5098 4.64183 3.63529 4.52157C3.76078 4.39608 3.9098 4.33333 4.08235 4.33333C4.26013 4.33333 4.40915 4.39608 4.52941 4.52157C4.6549 4.64183 4.71765 4.79085 4.71765 4.96863ZM8.55294 4.96863C8.55294 5.14118 8.4902 5.2902 8.36471 5.41569C8.24444 5.54118 8.09543 5.60392 7.91765 5.60392C7.7451 5.60392 7.59608 5.54118 7.47059 5.41569C7.3451 5.2902 7.28235 5.14118 7.28235 4.96863C7.28235 4.79085 7.3451 4.64183 7.47059 4.52157C7.59608 4.39608 7.7451 4.33333 7.91765 4.33333C8.09543 4.33333 8.24444 4.39608 8.36471 4.52157C8.4902 4.64183 8.55294 4.79085 8.55294 4.96863ZM3.69804 7.61176L4.18431 7.32941C4.59739 8.08235 5.20392 8.45882 6.00392 8.45882C6.80392 8.45882 7.40784 8.08235 7.81569 7.32941L8.3098 7.61176C8.04837 8.1085 7.72418 8.48758 7.33726 8.74902C6.95556 9.01046 6.51111 9.14118 6.00392 9.14118C5.4915 9.14118 5.04444 9.01046 4.66275 8.74902C4.28105 8.48758 3.95948 8.1085 3.69804 7.61176Z" fill="#111111"></path> <path d="M2.46667 9.54118L2.39596 9.61189L2.39615 9.61208L2.46667 9.54118ZM2.46667 2.46667L2.53719 2.53757L2.53738 2.53738L2.46667 2.46667ZM9.53333 2.46667L9.46243 2.53719L9.46281 2.53757L9.53333 2.46667ZM9.02353 2.98431L8.9526 3.0548L8.95304 3.05525L9.02353 2.98431ZM2.97647 9.02353L2.90554 9.09402L2.90598 9.09446L2.97647 9.02353ZM4.52941 5.41569L4.45869 5.34496L4.45721 5.3465L4.52941 5.41569ZM3.63529 4.52157L3.7045 4.59378L3.706 4.59228L3.63529 4.52157ZM4.52941 4.52157L4.45715 4.59082L4.46022 4.59377L4.52941 4.52157ZM8.36471 5.41569L8.29398 5.34496L8.29251 5.3465L8.36471 5.41569ZM7.47059 4.52157L7.53979 4.59378L7.5413 4.59228L7.47059 4.52157ZM8.36471 4.52157L8.29244 4.59082L8.29552 4.59377L8.36471 4.52157ZM3.69804 7.61176L3.64783 7.52529L3.56487 7.57345L3.60955 7.65834L3.69804 7.61176ZM4.18431 7.32941L4.27199 7.28131L4.22271 7.19148L4.1341 7.24293L4.18431 7.32941ZM7.81569 7.32941L7.8653 7.24259L7.77648 7.19183L7.72776 7.28178L7.81569 7.32941ZM8.3098 7.61176L8.3983 7.65834L8.44328 7.57286L8.35942 7.52494L8.3098 7.61176ZM7.33726 8.74902L7.28127 8.66616L7.28075 8.66652L7.33726 8.74902ZM10.9 6.00392C10.9 7.35774 10.4217 8.5114 9.46262 9.47047L9.60404 9.61189C10.6005 8.61539 11.1 7.41089 11.1 6.00392H10.9ZM9.46262 9.47047C8.5089 10.4242 7.3579 10.9 6.00392 10.9V11.1C7.41073 11.1 8.61267 10.6033 9.60404 9.61189L9.46262 9.47047ZM6.00392 10.9C4.64993 10.9 3.49621 10.4242 2.53719 9.47028L2.39615 9.61208C3.39268 10.6033 4.59713 11.1 6.00392 11.1V10.9ZM2.53738 9.47047C1.57832 8.5114 1.1 7.35774 1.1 6.00392H0.9C0.9 7.41089 1.39946 8.61539 2.39596 9.61189L2.53738 9.47047ZM1.1 6.00392C1.1 4.64477 1.57838 3.49125 2.53719 2.53757L2.39615 2.39577C1.3994 3.38718 0.9 4.59183 0.9 6.00392H1.1ZM2.53738 2.53738C3.49644 1.57832 4.6501 1.1 6.00392 1.1V0.9C4.59696 0.9 3.39245 1.39946 2.39596 2.39596L2.53738 2.53738ZM6.00392 1.1C7.35773 1.1 8.50867 1.5783 9.46243 2.53719L9.60423 2.39615C8.6129 1.39948 7.4109 0.9 6.00392 0.9V1.1ZM9.46281 2.53757C10.4216 3.49125 10.9 4.64477 10.9 6.00392H11.1C11.1 4.59183 10.6006 3.38718 9.60385 2.39577L9.46281 2.53757ZM10.3784 6.00392C10.3784 4.79565 9.94955 3.76357 9.09402 2.91338L8.95304 3.05525C9.77071 3.86781 10.1784 4.8488 10.1784 6.00392H10.3784ZM9.09446 2.91383C8.24428 2.05829 7.21219 1.62941 6.00392 1.62941V1.82941C7.15905 1.82941 8.14004 2.23713 8.9526 3.0548L9.09446 2.91383ZM6.00392 1.62941C4.79566 1.62941 3.76109 2.05827 2.90576 2.9136L3.04718 3.05502C3.86505 2.23715 4.84878 1.82941 6.00392 1.82941V1.62941ZM2.90576 2.9136C2.05553 3.76384 1.62941 4.79585 1.62941 6.00392H1.82941C1.82941 4.84859 2.23467 3.86754 3.04718 3.05502L2.90576 2.9136ZM1.62941 6.00392C1.62941 7.20688 2.0556 8.23873 2.90554 9.09402L3.0474 8.95304C2.2346 8.13512 1.82941 7.1539 1.82941 6.00392H1.62941ZM2.90598 9.09446C3.76136 9.94449 4.79587 10.3706 6.00392 10.3706V10.1706C4.84858 10.1706 3.86478 9.76531 3.04696 8.9526L2.90598 9.09446ZM6.00392 10.3706C7.21199 10.3706 8.24401 9.94447 9.09424 9.09424L8.95282 8.95282C8.14031 9.76533 7.15925 10.1706 6.00392 10.1706V10.3706ZM9.09424 9.09424C9.94948 8.23901 10.3784 7.20708 10.3784 6.00392H10.1784C10.1784 7.1537 9.77079 8.13485 8.95282 8.95282L9.09424 9.09424ZM4.61765 4.96863C4.61765 5.11382 4.56604 5.23764 4.4587 5.34498L4.60012 5.4864C4.74377 5.34275 4.81765 5.16853 4.81765 4.96863H4.61765ZM4.45721 5.3465C4.35629 5.4518 4.23357 5.50392 4.08235 5.50392V5.70392C4.28669 5.70392 4.46201 5.63055 4.60161 5.48488L4.45721 5.3465ZM4.08235 5.50392C3.93716 5.50392 3.81334 5.45231 3.706 5.34498L3.56458 5.4864C3.70823 5.63004 3.88245 5.70392 4.08235 5.70392V5.50392ZM3.706 5.34498C3.59867 5.23764 3.54706 5.11382 3.54706 4.96863H3.34706C3.34706 5.16853 3.42094 5.34275 3.56458 5.4864L3.706 5.34498ZM3.54706 4.96863C3.54706 4.81741 3.59918 4.69469 3.70448 4.59377L3.5661 4.44937C3.42043 4.58897 3.34706 4.76429 3.34706 4.96863H3.54706ZM3.706 4.59228C3.81334 4.48494 3.93716 4.43333 4.08235 4.43333V4.23333C3.88245 4.23333 3.70823 4.30721 3.56458 4.45086L3.706 4.59228ZM4.08235 4.43333C4.23357 4.43333 4.35629 4.48545 4.45721 4.59076L4.60161 4.45238C4.46201 4.30671 4.28669 4.23333 4.08235 4.23333V4.43333ZM4.46022 4.59377C4.56553 4.69469 4.61765 4.81741 4.61765 4.96863H4.81765C4.81765 4.76429 4.74427 4.58897 4.5986 4.44937L4.46022 4.59377ZM8.45294 4.96863C8.45294 5.11382 8.40133 5.23764 8.294 5.34498L8.43542 5.4864C8.57906 5.34275 8.65294 5.16853 8.65294 4.96863H8.45294ZM8.29251 5.3465C8.19159 5.4518 8.06887 5.50392 7.91765 5.50392V5.70392C8.12198 5.70392 8.2973 5.63055 8.4369 5.48488L8.29251 5.3465ZM7.91765 5.50392C7.77245 5.50392 7.64863 5.45231 7.5413 5.34498L7.39988 5.4864C7.54352 5.63004 7.71774 5.70392 7.91765 5.70392V5.50392ZM7.5413 5.34498C7.43396 5.23764 7.38235 5.11382 7.38235 4.96863H7.18235C7.18235 5.16853 7.25623 5.34275 7.39988 5.4864L7.5413 5.34498ZM7.38235 4.96863C7.38235 4.81741 7.43447 4.69469 7.53978 4.59377L7.4014 4.44937C7.25573 4.58897 7.18235 4.76429 7.18235 4.96863H7.38235ZM7.5413 4.59228C7.64863 4.48494 7.77245 4.43333 7.91765 4.43333V4.23333C7.71774 4.23333 7.54352 4.30721 7.39988 4.45086L7.5413 4.59228ZM7.91765 4.43333C8.06887 4.43333 8.19159 4.48545 8.29251 4.59076L8.4369 4.45238C8.2973 4.30671 8.12198 4.23333 7.91765 4.23333V4.43333ZM8.29552 4.59377C8.40082 4.69469 8.45294 4.81741 8.45294 4.96863H8.65294C8.65294 4.76429 8.57957 4.58897 8.4339 4.44937L8.29552 4.59377ZM3.74825 7.69824L4.23453 7.41589L4.1341 7.24293L3.64783 7.52529L3.74825 7.69824ZM4.09664 7.37751C4.30978 7.76601 4.57569 8.06245 4.89628 8.26144C5.21724 8.46065 5.5876 8.55882 6.00392 8.55882V8.35882C5.62025 8.35882 5.28733 8.26876 5.00176 8.09151C4.71581 7.91403 4.47192 7.64575 4.27199 7.28131L4.09664 7.37751ZM6.00392 8.55882C6.42024 8.55882 6.79002 8.46065 7.10976 8.26133C7.42915 8.06223 7.69312 7.76565 7.90362 7.37704L7.72776 7.28178C7.53041 7.64611 7.2885 7.91424 7.00396 8.09161C6.71978 8.26876 6.38761 8.35882 6.00392 8.35882V8.55882ZM7.76607 7.41624L8.26019 7.69859L8.35942 7.52494L7.8653 7.24259L7.76607 7.41624ZM8.22131 7.56519C7.96601 8.05026 7.65203 8.41565 7.28127 8.66616L7.39324 8.83188C7.79633 8.55952 8.13072 8.16673 8.3983 7.65834L8.22131 7.56519ZM7.28075 8.66652C6.91729 8.91546 6.49297 9.04118 6.00392 9.04118V9.24118C6.52925 9.24118 6.99382 9.10545 7.39376 8.83152L7.28075 8.66652ZM6.00392 9.04118C5.50941 9.04118 5.08254 8.91534 4.71925 8.66652L4.60624 8.83152C5.00635 9.10557 5.4736 9.24118 6.00392 9.24118V9.04118ZM4.71925 8.66652C4.35356 8.41604 4.04199 8.05056 3.78653 7.56519L3.60955 7.65834C3.87696 8.16643 4.20854 8.55913 4.60624 8.83152L4.71925 8.66652Z" fill="#111111" mask="url(#path-1-outside-1_130_2025)"></path> </svg> 